<?xml version="1.0" encoding="UTF-8" standalone="no"?>
<!-- Created with Inkscape (http://www.inkscape.org/) -->

<svg
   width="66"
   height="50"
   viewBox="0 0 17.4625 13.229167"
   version="1.1"
   id="svg5"
   inkscape:version="1.1.2 (0a00cf5339, 2022-02-04)"
   sodipodi:docname="boat.svg"
   xmlns:inkscape="http://www.inkscape.org/namespaces/inkscape"
   xmlns:sodipodi="http://sodipodi.sourceforge.net/DTD/sodipodi-0.dtd"
   xmlns="http://www.w3.org/2000/svg"
   xmlns:svg="http://www.w3.org/2000/svg">
  <sodipodi:namedview
     id="namedview7"
     pagecolor="#00005a"
     bordercolor="#000000"
     borderopacity="0.25"
     inkscape:pageshadow="2"
     inkscape:pageopacity="0"
     inkscape:pagecheckerboard="true"
     inkscape:document-units="px"
     showgrid="false"
     units="px"
     width="100px"
     inkscape:object-paths="false"
     inkscape:snap-intersection-paths="false"
     inkscape:snap-smooth-nodes="false"
     inkscape:snap-midpoints="false"
     inkscape:snap-object-midpoints="true"
     inkscape:snap-center="true"
     inkscape:snap-page="true"
     showguides="true"
     inkscape:guide-bbox="true"
     inkscape:snap-nodes="true"
     inkscape:object-nodes="false"
     inkscape:snap-others="false"
     inkscape:zoom="10.274416"
     inkscape:cx="20.24446"
     inkscape:cy="36.644419"
     inkscape:window-width="1920"
     inkscape:window-height="1016"
     inkscape:window-x="0"
     inkscape:window-y="0"
     inkscape:window-maximized="1"
     inkscape:current-layer="layer3" />
  <defs
     id="defs2" />
  <g
     inkscape:label="Layer 1"
     inkscape:groupmode="layer"
     id="layer1" />
  <g
     inkscape:groupmode="layer"
     id="layer2"
     inkscape:label="Layer 2" />
  <g
     inkscape:groupmode="layer"
     id="layer3"
     inkscape:label="Layer 3">
    <path
       style="fill:#000000;stroke-width:0.0519377;stroke:none"
       d="m -16.670277,13.148957 c -0.01674,-0.01675 0.01378,-0.12788 0.06786,-0.24696 0.116396,-0.256356 0.124946,-0.346355 0.03291,-0.346355 -0.137738,0 -0.499378,-0.32196 -0.6037,-0.537462 -0.107585,-0.222241 -0.144496,-0.501293 -0.06631,-0.501293 0.02276,0 0.25064,0.04563 0.506394,0.101403 1.342506,0.292755 2.986329,0.468741 4.736938,0.507131 l 1.363413,0.0299 -0.03333,-0.254295 c -0.01834,-0.139863 -0.03935,-0.261656 -0.0467,-0.270654 -0.0074,-0.009 -1.774492,-0.08886 -3.926971,-0.177464 -2.462087,-0.101353 -3.926776,-0.181051 -3.949127,-0.214882 -0.05711,-0.08645 0.0045,-0.136643 0.167676,-0.136643 0.123002,0 0.197068,-0.05696 0.388347,-0.298641 0.499552,-0.631195 1.296506,-1.888516 1.656638,-2.6136094 0.779428,-1.5693111 1.122408,-2.8819766 1.128077,-4.3174231 0.0024,-0.6233679 -1.02e-4,-0.6378719 -0.132168,-0.743167 -0.127725,-0.1018444 -0.189344,-0.2616791 -0.08662,-0.2246771 0.02643,0.00952 0.580049,0.4496945 1.230255,0.9781614 0.650203,0.528467 1.213516,0.9798983 1.251805,1.0031809 0.05038,0.030637 0.101228,-0.026757 0.184038,-0.2077511 0.09356,-0.2044905 0.114465,-0.3447708 0.114662,-0.7694608 1.96e-4,-0.5338852 -0.08617,-0.9235754 -0.348384,-1.5711182 -0.106098,-0.2620121 -0.118165,-0.2726734 -0.308609,-0.2726734 -0.109008,0 -0.198196,-0.023372 -0.198196,-0.051938 0,-0.032537 0.321663,-0.051938 0.861108,-0.051938 h 0.861108 l -0.03087,-0.324611 c -0.124516,-1.30918193 -0.15082,-2.0105178 -0.05964,-1.59023099 0.02437,0.11232105 0.238063,1.80022159 0.238063,1.88036109 0,0.018965 0.502498,0.034481 1.116663,0.034481 0.7098156,0 1.1166606,0.018924 1.1166606,0.051938 0,0.028566 -0.0606,0.051938 -0.134657,0.051938 -0.131482,0 -0.129072,0.00621 0.102231,0.2634773 0.290692,0.3233179 0.528314,0.7312747 0.681803,1.1705308 0.113821,0.3257337 0.180395,0.3986791 3.2776149,3.5912784 1.738788,1.7923346 3.3825826,3.4875312 3.6528766,3.7671042 0.4337051,0.448593 0.5100441,0.506562 0.6497651,0.493409 0.11273,-0.01061 0.158322,0.0076 0.158322,0.063 0,0.06251 -0.138647,0.08953 -0.7011611,0.136663 -2.7903836,0.233831 -4.6026576,0.403518 -4.6377216,0.434239 -0.02267,0.01987 -0.06942,0.291023 -0.103875,0.602568 l -0.06265,0.566446 -5.0420385,0.01324 c -2.773121,0.0073 -5.055742,-4.71e-4 -5.072488,-0.01721 z m 3.752146,-0.749128 c 0,-0.06925 -0.03463,-0.103876 -0.103875,-0.103876 -0.06925,0 -0.103875,0.03463 -0.103875,0.103876 0,0.06925 0.03463,0.103875 0.103875,0.103875 0.06925,0 0.103875,-0.03462 0.103875,-0.103875 z m 0.986818,0 c 0,-0.06925 -0.03463,-0.103876 -0.103874,-0.103876 -0.06925,0 -0.103876,0.03463 -0.103876,0.103876 0,0.06925 0.03463,0.103875 0.103876,0.103875 0.06925,0 0.103874,-0.03462 0.103874,-0.103875 z m 0.98682,-0.0038 c 0,-0.133099 -0.171907,-0.117999 -0.197979,0.01738 -0.01199,0.06233 0.01596,0.09029 0.09029,0.09029 0.07432,-10e-7 0.107684,-0.03336 0.107684,-0.107685 z m 1.0387536,0.0038 c 0,-0.06925 -0.03463,-0.103876 -0.1038746,-0.103876 -0.06925,0 -0.103876,0.03463 -0.103876,0.103876 0,0.06925 0.03463,0.103875 0.103876,0.103875 0.06925,0 0.1038746,-0.03462 0.1038746,-0.103875 z m 0.882944,0 c 0,-0.06925 -0.03463,-0.103876 -0.103877,-0.103876 -0.06925,0 -0.103874,0.03463 -0.103874,0.103876 0,0.06925 0.03463,0.103875 0.103874,0.103875 0.06925,0 0.103877,-0.03462 0.103877,-0.103875 z m 0.934879,0 c 0,-0.06925 -0.03463,-0.103876 -0.103877,-0.103876 -0.06925,0 -0.103873,0.03463 -0.103873,0.103876 0,0.06925 0.03463,0.103875 0.103873,0.103875 0.06925,0 0.103877,-0.03462 0.103877,-0.103875 z M -13.872449,12.26827 c -0.01608,-0.04191 -0.06503,-0.07619 -0.108776,-0.07619 -0.110534,0 -0.100366,0.195858 0.01136,0.218792 0.103717,0.02129 0.139956,-0.03175 0.09742,-0.1426 z m -1.013446,-0.134001 c -0.05119,-0.01945 -0.09617,7.76e-4 -0.115617,0.05194 -0.01945,0.05119 7.76e-4,0.09616 0.05194,0.115617 0.05119,0.01946 0.09616,-7.77e-4 0.115617,-0.05194 0.01945,-0.05119 -7.77e-4,-0.09616 -0.05194,-0.115617 z m 5.7332536,-0.04682 c 0.901083,-0.06478 0.960848,-0.07771 0.960848,-0.207987 0,-0.05659 0.01753,-0.10344 0.03896,-0.104117 0.261127,-0.0083 1.2765482,-0.102388 1.2941452,-0.119985 0.01286,-0.01286 -0.01938,-0.113551 -0.07165,-0.223757 l -0.09504,-0.200374 -0.6481282,0.005 c -1.026924,0.0081 -2.014508,0.200658 -2.4707796,0.48176 -0.136063,0.08382 -0.157016,0.123685 -0.136934,0.260506 0.02802,0.190922 0.01041,0.189224 1.1285796,0.108843 z m 2.9344862,-0.473232 c 0,-0.10373 -0.370165,-0.991597 -0.630408,-1.512075 C -7.2547213,9.2898338 -8.2625894,7.5589172 -8.8448624,6.6736869 l -0.538063,-0.81802 h -0.498708 -0.4987086 l 0.3511,0.4025179 c 0.4307896,0.4938747 1.0968866,1.3873054 1.5004886,2.0125892 0.473562,0.7336748 1.3798181,2.338545 1.6350772,2.895532 l 0.232072,0.506394 h 0.221724 c 0.129734,0 0.221725,-0.02426 0.221725,-0.05849 z m 2.5307129,-0.126333 c 1.1347527,-0.07308 2.0701918,-0.139878 2.0787498,-0.148437 0.0086,-0.0086 -0.2479521,-0.215243 -0.5700211,-0.459299 -0.553322,-0.419295 -0.607037,-0.447525 -0.975112,-0.512463 -0.8308016,-0.146574 -2.2894266,-0.0702 -3.1253726,0.163658 l -0.190889,0.0534 0.145032,0.32324 c 0.07977,0.177784 0.173322,0.410886 0.207901,0.518009 0.05368,0.166307 0.08505,0.194766 0.214695,0.194766 0.08351,0 1.080263,-0.05979 2.2150169,-0.132877 z m -6.5384937,-0.06189 c 0.2290386,-0.584492 0.3458256,-1.4766152 0.2974606,-2.2722778 -0.04922,-0.8098478 -0.2244626,-1.9441813 -0.3931556,-2.5449517 -0.02406,-0.085697 -0.08122,-0.2902022 -0.127006,-0.4544555 l -0.08326,-0.2986421 h -0.31253 -0.312529 l 0.02876,0.1687979 c 0.0337,0.1978507 0.611427,4.2974742 0.709954,5.0379662 0.03706,0.278517 0.08289,0.506394 0.10186,0.506394 0.01896,0 0.05967,-0.06427 0.09045,-0.142829 z m -0.511602,-0.129837 c -3.92e-4,-0.06427 -0.01797,-0.143081 -0.03896,-0.175127 -0.0246,-0.03756 -0.398115,-0.07133 -1.050944,-0.09501 -0.557034,-0.02021 -2.134645,-0.08075 -3.505802,-0.134547 l -2.493014,-0.09781 -0.124873,0.140104 -0.124873,0.140104 0.17681,0.03621 c 0.09725,0.01992 1.216866,0.07631 2.488044,0.125334 1.271178,0.04902 2.673498,0.10517 3.116267,0.124781 1.558704,0.06903 1.558243,0.06905 1.557339,-0.06405 z M -2.9501776,9.9197985 C -3.3373073,9.5270191 -3.8113562,9.0394086 -4.0036212,8.8362201 c -0.262759,-0.2776895 -0.410243,-0.3894128 -0.593878,-0.449883 -0.134368,-0.044247 -0.546701,-0.1871728 -0.916298,-0.317613 -0.369594,-0.1304408 -0.678111,-0.2310432 -0.685591,-0.2235616 -0.0075,0.00748 0.552006,0.4049996 1.243304,0.8833729 0.691302,0.4783736 1.5724329,1.1005887 1.9580726,1.3827016 0.385638,0.282112 0.712532,0.515131 0.726432,0.517819 0.0139,0.0027 -0.291469,-0.316477 -0.678598,-0.7092575 z M -7.4412673,6.8554692 C -7.4862994,6.7483476 -7.7583794,6.093024 -8.0458904,5.3991948 c -0.28751,-0.6938291 -0.528951,-1.2547572 -0.536536,-1.2465068 -0.0076,0.00825 0.01076,0.2428778 0.04074,0.5213941 0.04076,0.3784405 0.07326,0.5063934 0.128634,0.5063934 0.04076,0 0.06436,0.029214 0.05247,0.064923 -0.01643,0.049359 -0.36063,0.068236 -1.435845,0.078747 l -1.4142266,0.013826 0.01621,0.1679574 0.01621,0.167957 1.5751896,0.013753 c 1.222151,0.010671 1.570399,0.02813 1.553806,0.077906 -0.02566,0.076971 -0.01419,0.075492 -0.64871,0.083631 l -0.506137,0.00649 0.882686,0.5939371 c 0.485479,0.3266658 0.9005291,0.5954438 0.9223371,0.5972845 0.02181,0.00185 0.0028,-0.084297 -0.04222,-0.1914193 z M -11.385151,6.0151943 c -0.03078,-0.1401573 -0.05661,-0.1595274 -0.212692,-0.1595274 -0.123291,0 -0.177656,-0.023841 -0.177656,-0.077906 0,-0.054305 0.05468,-0.077906 0.180484,-0.077906 0.175588,0 0.179613,-0.00457 0.148352,-0.1687979 -0.01766,-0.092839 -0.03752,-0.1755938 -0.0441,-0.1838997 -0.0066,-0.00831 -0.216745,-0.00831 -0.467023,0 l -0.455052,0.015101 0.513435,0.4220808 c 0.28239,0.2321448 0.521504,0.4149486 0.531364,0.4062319 0.0099,-0.00872 0.0022,-0.087637 -0.01712,-0.1753762 z m -0.121721,-1.0420991 c -0.01851,-0.1941647 -0.02853,-0.205417 -0.157186,-0.1765739 -0.683441,0.1532242 -1.054969,0.2760063 -1.017689,0.3363243 0.01619,0.026197 0.29161,0.04763 0.612043,0.04763 h 0.582607 z m 2.5879516,0.096435 c -0.47156,-0.2090418 -0.949493,-0.3088802 -1.6100716,-0.3363387 -0.357073,-0.014843 -0.677761,-0.00696 -0.712639,0.017517 -0.0411,0.028843 -0.05241,0.1122914 -0.03216,0.2371349 l 0.03126,0.1926314 1.2786646,-0.00367 1.278664,-0.00367 z"
       id="path9496"
       sodipodi:nodetypes="scssssscssssssssssssscsssscssssssssssssssscssssssssssssssssssssssssssssssssscsscccscscssssccsssssssscccssscssssssscsssssssscccsssscssscccssscsssssssssssssssscccssscssssssssssscsssssssscssssscccs" />
    <path
       style="fill:#fffff4;fill-opacity:1;stroke:none;stroke-width:0.0658442;stroke-linejoin:round;stroke-miterlimit:4;stroke-dasharray:none;stroke-opacity:1"
       d="m 15.477057,13.182063 c 0.04862,-0.0128 0.04657,-0.02548 -0.0389,-0.240407 -0.04105,-0.103229 -0.07551,-0.218616 -0.07658,-0.256417 -0.0018,-0.0641 0.0049,-0.07137 0.100165,-0.107905 0.191289,-0.07339 0.466549,-0.350036 0.564579,-0.567413 0.05819,-0.129035 0.09544,-0.30709 0.08252,-0.394474 -0.0084,-0.05673 0.02801,-0.06071 -0.536867,0.05876 -1.168423,0.247117 -2.395507,0.398946 -3.816973,0.472281 -0.532923,0.02749 -2.2071192,0.06773 -2.2213572,0.0534 -0.01959,-0.01973 0.05827,-0.514238 0.08352,-0.530413 0.01324,-0.0085 0.07003,-0.01562 0.12619,-0.01587 0.05616,-2.5e-4 0.2767302,-0.0097 0.4901482,-0.02099 0.213419,-0.0113 1.357606,-0.06213 2.54264,-0.11297 3.003631,-0.128847 4.180858,-0.188351 4.530381,-0.228994 0.06967,-0.0081 0.113127,-0.02391 0.12075,-0.04392 0.01678,-0.04404 -0.05016,-0.08693 -0.136486,-0.08747 -0.198666,-0.0012 -0.341363,-0.151121 -0.854231,-0.89727 -0.556424,-0.809515 -1.06266,-1.6761687 -1.37451,-2.3530971 -0.504968,-1.0961293 -0.786056,-2.038775 -0.907662,-3.0439021 -0.03611,-0.2984329 -0.06555,-1.330631 -0.04239,-1.4861694 0.01126,-0.075653 0.03462,-0.1148631 0.123475,-0.2072658 0.100463,-0.1044771 0.151255,-0.188227 0.128223,-0.2114255 -0.01556,-0.015675 -0.239103,0.1587833 -1.10761,0.8643976 -1.25826,1.0222674 -1.385685,1.12272 -1.424202,1.1227342 -0.04689,1.69e-5 -0.123939,-0.1207413 -0.189802,-0.2974914 -0.07388,-0.198259 -0.10005,-0.5405902 -0.07157,-0.9361465 0.0319,-0.4430207 0.09724,-0.7079672 0.310816,-1.2602647 0.119895,-0.3100433 0.151513,-0.3441944 0.320632,-0.3463268 0.06307,-7.962e-4 0.132448,-0.00846 0.154167,-0.017022 0.104289,-0.041136 -0.07476,-0.054 -0.841676,-0.060471 l -0.822608,-0.00694 0.01065,-0.065057 c 0.01354,-0.082701 0.06333,-0.6467488 0.102895,-1.1656071 0.0297,-0.38956791 0.04046,-0.77792303 0.02101,-0.75832801 -0.0053,0.0053106 -0.02402,0.10636556 -0.04165,0.22456664 -0.03358,0.2250891 -0.214258,1.65752697 -0.214258,1.69870317 0,0.013075 -0.01608,0.030051 -0.03574,0.037722 -0.01966,0.00767 -0.499849,0.021459 -1.0670932,0.030639 -0.567244,0.00918 -1.048207,0.023696 -1.068805,0.032258 -0.05425,0.022547 -0.003,0.05027 0.09361,0.050668 0.104511,4.308e-4 0.09919,0.033004 -0.03063,0.1874414 -0.208983,0.2485919 -0.246913,0.298284 -0.36749,0.4814302 -0.129886,0.1972939 -0.31577,0.5692472 -0.371336,0.743051 C 7.6188168,3.8459679 7.5079058,3.9708589 5.076738,6.4999019 4.554425,7.0432422 3.388803,8.2561198 2.486468,9.1951854 0.65313695,11.103142 0.45028485,11.308057 0.33748885,11.366019 c -0.04726,0.02429 -0.119709,0.04055 -0.180633,0.04055 -0.18735997,0 -0.15546997,0.08613 0.04482,0.121044 0.06971,0.01215 0.5035551,0.05485 0.96409015,0.09488 2.98728,0.259643 4.101283,0.367119 4.155582,0.400921 0.03119,0.01942 0.08887,0.368434 0.135172,0.817984 l 0.03655,0.35485 4.974125,-0.0024 c 2.735766,-0.0013 4.990204,-0.0066 5.009861,-0.0118 z m -3.641709,-0.644815 c -0.04779,-0.02576 -0.05443,-0.146329 -0.0101,-0.183383 0.04807,-0.04018 0.139461,-0.01753 0.172969,0.04288 0.02693,0.04854 -0.0049,0.107997 -0.0049,0.107997 -0.0031,0.06765 -0.09207,0.06801 -0.157933,0.03251 z m -0.980295,0 c -0.04779,-0.02576 -0.05443,-0.146329 -0.0101,-0.183383 0.04807,-0.04018 0.139462,-0.01753 0.17297,0.04288 0.02693,0.04854 0.02641,0.05981 -0.0049,0.107997 -0.03685,0.05665 -0.09207,0.06801 -0.157934,0.03251 z m -0.9802952,0 c -0.05463,-0.02945 -0.05463,-0.154244 5e-6,-0.183695 0.0485,-0.02615 0.1332122,0.0022 0.1517242,0.05081 0.02133,0.05599 0.01478,0.129452 -0.01253,0.140552 -0.04332,0.0176 -0.09788,0.0146 -0.1391972,-0.0077 z m -1.058786,-0.04319 c -0.02693,-0.04854 -0.02641,-0.05981 0.0049,-0.107998 0.03795,-0.05833 0.128745,-0.07362 0.17293,-0.02911 0.03764,0.03791 0.03034,0.154909 -0.01123,0.179865 -0.05892,0.03538 -0.133977,0.01611 -0.166629,-0.04276 z m -0.85967,0.03357 c -0.01401,-0.017 -0.02548,-0.05401 -0.02548,-0.08222 0,-0.0701 0.04019,-0.113139 0.105636,-0.113139 0.07251,0 0.103698,0.03496 0.103698,0.116231 0,0.09873 -0.123801,0.152018 -0.183857,0.07913 z m -0.927727,-0.0014 c -0.06937,-0.06987 -0.01804,-0.193954 0.08023,-0.193954 0.06161,0 0.112326,0.05108 0.112326,0.113139 0,0.06206 -0.05071,0.113141 -0.112326,0.113141 -0.02648,0 -0.06258,-0.01455 -0.08023,-0.03233 z m 5.7016282,-0.0724 c -0.07629,-0.05618 4.2e-4,-0.225038 0.0983,-0.210437 0.103331,0.01542 0.115131,0.156262 0.01219,0.211199 -0.06281,0.03352 -0.110499,-7.66e-4 -0.110499,-7.66e-4 z m 0.96455,-0.142915 c -0.01225,-0.02306 -0.01656,-0.06006 -0.0096,-0.08224 0.01509,-0.04787 0.104949,-0.07555 0.150997,-0.04649 0.04158,0.02625 0.05317,0.102402 0.02144,0.140915 -0.037,0.04491 -0.136479,0.03746 -0.162863,-0.0122 z M 8.1434108,12.145962 c -0.925285,-0.06687 -1.044815,-0.09252 -1.044815,-0.224195 0,-0.07937 -0.0361,-0.103781 -0.153471,-0.103781 -0.100825,0 -0.877167,-0.06872 -1.078508,-0.09547 -0.09381,-0.01247 -0.09789,-0.01565 -0.08545,-0.06681 0.0072,-0.02954 0.04692,-0.129852 0.0883,-0.222902 l 0.07524,-0.169184 0.296131,6.2e-5 c 0.405639,8.2e-5 0.981377,0.03135 1.298545,0.07053 0.908511,0.112236 1.663219,0.390904 1.662651,0.613918 -2.37e-4,0.09338 -0.04353,0.201365 -0.08795,0.219391 -0.0727,0.0295 -0.349089,0.02336 -0.970667,-0.02156 z M 5.175507,11.692757 c -0.05008,-0.02699 -0.0427,-0.05594 0.120247,-0.471331 C 5.615555,10.406193 5.9759498,9.6985908 6.7573238,8.3517734 7.2268388,7.5424948 7.4922288,7.1116096 8.0021558,6.330674 l 0.285436,-0.4371327 h 0.498123 c 0.273968,0 0.498123,0.00524 0.498123,0.011665 0,0.00641 -0.113052,0.1429559 -0.251228,0.3034223 -0.598144,0.6946361 -1.25643,1.5900886 -1.717496,2.3362727 -0.570128,0.9226884 -1.2877,2.2327167 -1.6113578,2.9417607 l -0.116378,0.254949 -0.187,-0.01422 c -0.10285,-0.0078 -0.204042,-0.02341 -0.224871,-0.03464 z M 3.432699,11.590732 C 2.429012,11.527792 1.076365,11.436348 0.76917395,11.41066 c -0.09457,-0.0079 -0.17463,-0.02364 -0.177912,-0.03495 -0.01086,-0.03743 0.85723905,-0.706767 1.07486405,-0.828756 0.246899,-0.138397 0.580308,-0.189952 1.321463,-0.204335 0.686338,-0.01332 1.268564,0.02854 1.812492,0.130309 0.208659,0.03904 0.56752,0.131501 0.589718,0.151943 0.0093,0.0086 -0.03555,0.134738 -0.09969,0.280361 -0.06414,0.145623 -0.152591,0.361966 -0.196561,0.480764 -0.04424,0.119533 -0.100049,0.233219 -0.124965,0.254564 -0.05255,0.04502 0.008,0.04698 -1.535888,-0.04983 z m 5.7251158,-0.03503 c -0.09542,-0.165 -0.232115,-0.710311 -0.29322,-1.169752 -0.133021,-1.0001666 0.03651,-2.5944423 0.426291,-4.0089904 l 0.130375,-0.4731327 0.32167,-0.00568 0.3216702,-0.00568 -0.01151,0.046819 c -0.01401,0.056982 -0.3360212,2.338449 -0.5742372,4.0684491 -0.09581,0.695813 -0.188077,1.335466 -0.205034,1.42145 -0.01696,0.08599 -0.03083,0.162354 -0.03083,0.16971 0,0.03548 -0.05615,0.007 -0.08518,-0.0432 z m 0.499558,-0.132152 c -0.03064,-0.02562 -0.03486,-0.156331 -0.0074,-0.229075 0.013,-0.03446 0.04023,-0.0542 0.0868,-0.06295 0.170575,-0.03204 0.7406912,-0.06022 2.9678892,-0.146631 1.314208,-0.05099 2.743295,-0.107091 3.175748,-0.124666 l 0.786279,-0.03195 0.125557,0.140006 c 0.06906,0.07701 0.122164,0.145637 0.118016,0.152519 -0.03318,0.05506 -0.619888,0.08793 -4.021794,0.225377 -1.134487,0.04583 -2.237318,0.09121 -2.450737,0.100827 -0.430575,0.0194 -0.7402202,0.0101 -0.7803552,-0.02345 z M 1.33156,10.557621 C 1.59792,10.264257 3.071072,8.7484298 3.192345,8.6429302 3.268375,8.5767872 3.362751,8.5061598 3.402065,8.4859811 3.483225,8.4443221 4.969906,7.9228255 5.07163,7.9003314 5.10814,7.8922614 5.138,7.8902074 5.138,7.8957714 5.138,7.9103914 4.79867,8.156325 4.167917,8.5988487 3.141274,9.3191207 2.556614,9.734762 1.901402,10.210139 1.54219,10.470758 1.24459,10.680266 1.24007,10.675713 c -0.0045,-0.0046 0.03665,-0.05769 0.09149,-0.118092 z M 6.3090358,7.046612 c 0.01213,-0.061097 0.967757,-2.3840712 1.102692,-2.6804665 0.03992,-0.087684 0.07888,-0.1594253 0.08659,-0.1594253 0.01628,0 -7.61e-4,0.2313014 -0.04398,0.5965588 -0.04024,0.3401352 -0.05951,0.408489 -0.121909,0.4323848 -0.05875,0.022497 -0.06443,0.051 -0.01429,0.071596 0.06691,0.027483 0.728057,0.05156 1.762264,0.064176 l 1.0321472,0.012593 -0.01587,0.1653733 c -0.0087,0.090955 -0.01914,0.1686657 -0.02314,0.172689 -0.004,0.00403 -0.6589092,0.016764 -1.4553662,0.028314 -1.636882,0.023737 -1.684882,0.026596 -1.615709,0.096271 0.02897,0.029179 0.109913,0.035527 0.58057,0.045529 l 0.546908,0.011623 -0.541205,0.3685288 c -0.657651,0.4478219 -1.247878,0.834874 -1.273123,0.834874 -0.01024,0 -0.0132,-0.027277 -0.0066,-0.060618 z M 10.251911,6.1558215 c 0.03446,-0.2245277 0.07133,-0.2622802 0.256126,-0.2622802 0.06208,0 0.107571,-0.011271 0.123492,-0.030594 0.04853,-0.058905 0.0089,-0.087779 -0.141404,-0.1029817 -0.170233,-0.017221 -0.186248,-0.035124 -0.160256,-0.1791643 0.03799,-0.2105543 0.026,-0.201912 0.275842,-0.1987453 0.121028,0.00153 0.330334,0.00848 0.465124,0.015429 l 0.245073,0.012638 -0.374745,0.3085648 c -0.438344,0.3609306 -0.650768,0.5245601 -0.680986,0.5245601 -0.014,0 -0.01693,-0.030974 -0.0083,-0.087427 z m 0.121902,-0.9976931 c 0.0061,-0.042428 0.01693,-0.1252744 0.02399,-0.1841039 0.02005,-0.1670703 0.02489,-0.1680371 0.393019,-0.078633 0.537705,0.1305853 0.826113,0.2387048 0.774883,0.2904908 -0.03247,0.032818 -0.203323,0.044314 -0.69579,0.046812 l -0.50726,0.00257 z m -2.7153312,0.03286 c 0.272254,-0.1445985 0.716508,-0.2869568 1.084151,-0.347409 0.317924,-0.052277 0.958068,-0.090327 1.2054,-0.071649 0.2367862,0.017882 0.2458952,0.028026 0.2257952,0.2514455 -0.0075,0.083396 -0.01881,0.1651885 -0.02512,0.1817613 -0.0099,0.026034 -0.1855572,0.030009 -1.2908282,0.029223 l -1.279349,-8.986e-4 0.07995,-0.042463 z"
       id="path9766"
       sodipodi:nodetypes="csssssssssssssscssssscsssssssscssscssssssssssssssssccccssssssssssssssssssssssssssssssssssscssccsssssscssssscssssccsssscssssscssssssssssssssssscccssssssssssscssssssssssssssssssscsssccsssscssssssssssccssssscssccscsssscccc" />
  </g>
</svg>
