<?xml version="1.0" encoding="UTF-8" standalone="no"?>
<!-- Uploaded to: SVG Repo, www.svgrepo.com, Generator: SVG Repo Mixer Tools -->

<svg
   fill="#000000"
   version="1.1"
   id="Capa_1"
   width="125"
   height="365"
   viewBox="0 0 87.549531 255.64418"
   xml:space="preserve"
   sodipodi:docname="lightning-strike-r.svg"
   inkscape:version="1.1.2 (0a00cf5339, 2022-02-04)"
   xmlns:inkscape="http://www.inkscape.org/namespaces/inkscape"
   xmlns:sodipodi="http://sodipodi.sourceforge.net/DTD/sodipodi-0.dtd"
   xmlns="http://www.w3.org/2000/svg"
   xmlns:svg="http://www.w3.org/2000/svg"><defs
   id="defs22778" /><sodipodi:namedview
   id="namedview22776"
   pagecolor="#ffffff"
   bordercolor="#000000"
   borderopacity="0.25"
   inkscape:pageshadow="2"
   inkscape:pageopacity="0.0"
   inkscape:pagecheckerboard="0"
   showgrid="false"
   inkscape:zoom="1.2791071"
   inkscape:cx="-53.94388"
   inkscape:cy="77.006843"
   inkscape:window-width="1920"
   inkscape:window-height="1016"
   inkscape:window-x="0"
   inkscape:window-y="0"
   inkscape:window-maximized="1"
   inkscape:current-layer="Capa_1" />
<g
   id="g22773"
   transform="matrix(0.33012899,0,0,1.0000018,5.7151902e-8,-5e-4)">
	<g
   id="g22771">
		
	</g>
</g>
<path
   style="fill:#ffffff;fill-opacity:1;stroke-width:0.322621"
   d="m 37.895797,255.37239 c 0,-0.44494 1.038446,-2.22069 3.953037,-6.75944 0.704333,-1.09684 2.513057,-3.93602 4.019379,-6.30937 l 2.738735,-4.31513 0.254587,-5.86007 c 0.139995,-3.223 0.339303,-7.77483 0.442888,-10.1151 l 0.188303,-4.25509 -4.714563,-6.84511 c -2.593037,-3.76485 -5.392241,-7.80854 -6.220467,-8.98601 l -1.50583,-2.14083 V 187.0343 c 0,-9.95988 -0.0771,-12.74982 -0.351636,-12.74249 -0.193284,0.006 -2.77255,0.81326 -5.731412,1.79573 -5.145725,1.70863 -5.968514,2.14676 -7.803077,4.15493 -0.133554,0.14619 0.472839,1.43092 1.347553,2.85494 l 1.590414,2.58908 -1.970503,8.22172 c -1.083798,4.52192 -2.038305,8.31091 -2.121165,8.41988 -0.394923,0.5194 -0.0252,-1.72279 1.414198,-8.55212 1.772957,-8.41803 1.795898,-7.90185 -0.482936,-10.85493 l -1.384021,-1.79351 h -4.67603 -4.67603 l -4.896689,9.99016 c -2.6931749,5.49462 -5.4159968,11.0713 -6.0507114,12.39269 -0.63471449,1.32133 -1.20075747,2.21808 -1.25785431,1.99276 -0.0882785,-0.34844 2.78800791,-6.64267 10.23511071,-22.3976 0.83245,-1.76117 1.668159,-3.27935 1.857087,-3.37387 0.189059,-0.0945 2.427202,-0.20345 4.973998,-0.24217 l 4.630489,-0.0704 1.469117,-1.65085 c 1.565522,-1.75923 1.570542,-1.76179 9.664521,-4.97579 l 4.922831,-1.95478 6.640491,-7.00563 6.640529,-7.00562 1.838598,-14.69746 1.838597,-14.69745 -1.051745,-6.26761 c -0.578432,-3.44718 -1.21972,-7.38343 -1.425034,-8.74724 -0.205332,-1.36379 -0.471115,-2.40012 -0.590651,-2.30296 -0.119536,0.0971 -0.55731,1.54976 -0.972824,3.22802 l -0.755482,3.05133 -3.298659,1.83181 -3.298678,1.83181 -0.180535,4.41552 c -0.09908,2.42854 -0.18243,5.67979 -0.184703,7.225 -0.0057,3.33052 -0.424381,4.71939 -0.671542,2.22442 -0.08904,-0.89925 -0.195046,-4.69143 -0.235207,-8.42707 l -0.07331,-6.79205 2.813032,-1.98759 c 1.547184,-1.09316 2.918475,-2.0374 3.047293,-2.0983 0.226683,-0.10708 2.438172,-11.3499 2.438172,-12.39516 0,-0.28458 2.138668,-5.208289 4.752601,-10.941584 2.613933,-5.733295 5.035187,-11.090183 5.38061,-11.904199 0.345422,-0.814013 1.630821,-3.8447 2.856414,-6.734861 l 2.228387,-5.254829 -0.04774,-3.931597 c -0.03145,-2.57434 -0.159696,-3.988093 -0.372019,-4.095261 -0.178262,-0.09001 -3.612541,1.313907 -7.631578,3.119836 l -7.307316,3.283505 -0.140563,6.806602 -0.140564,6.806605 -5.766743,3.728463 -5.766761,3.728465 -2.250419,3.573867 -2.250457,3.573868 -6.12679,-0.0872 -6.126809,-0.0872 -0.301283,1.480025 c -2.657106,13.052795 -3.167776,15.355275 -3.405673,15.355275 -0.118021,0 -0.214634,-0.0456 -0.214634,-0.10134 0,-0.60455 3.172682,-17.533964 3.318777,-17.709003 0.108738,-0.130181 2.837565,-0.322914 6.064257,-0.428295 3.226672,-0.105388 5.98329,-0.344968 6.125786,-0.532405 0.142647,-0.187437 1.173516,-1.812283 2.291148,-3.610768 l 2.032052,-3.269965 5.06349,-3.575658 5.063508,-3.575652 0.07597,-7.212699 0.07615,-7.212701 8.789996,-4.355013 8.789977,-4.355012 5.841722,-7.458888 c 3.212976,-4.102391 5.837404,-7.58081 5.8321,-7.729828 -0.0057,-0.148999 -0.907829,-2.171481 -2.005588,-4.494358 L 73.005484,30.796199 71.555463,30.578217 C 70.757964,30.458324 68.585139,30.33184 66.726935,30.297138 l -3.378546,-0.0631 -3.957451,3.757931 c -2.176613,2.066855 -4.155888,3.757923 -4.398427,3.757923 -0.2425,0 -1.997385,-0.489667 -3.899653,-1.088151 -1.902249,-0.598485 -3.563873,-1.002631 -3.692445,-0.898107 -0.12844,0.104531 -0.72665,1.052077 -1.329027,2.10567 -0.602377,1.053596 -2.444252,4.152496 -4.093051,6.886447 -1.648818,2.73396 -3.175657,5.304711 -3.392962,5.712782 -0.217381,0.408077 -0.481288,0.628592 -0.586616,0.490045 -0.184324,-0.242416 8.104455,-16.952066 8.732349,-17.603886 0.177694,-0.184497 1.908198,0.03764 4.102619,0.526598 l 3.795253,0.845684 1.537732,-1.726099 c 0.845768,-0.949355 2.609708,-2.933245 3.919904,-4.408648 l 2.382154,-2.682548 2.41184,-0.04345 c 1.326488,-0.02378 3.659047,-0.148771 5.183423,-0.277515 l 2.771621,-0.234029 0.625887,-1.480027 c 0.344248,-0.814013 1.297504,-3.145053 2.118361,-5.180092 3.648287,-9.0446876 7.408514,-18.16610803 7.651867,-18.56172902 0.194534,-0.3163426 0.730286,-0.08580752 2.008675,0.86439216 2.241231,1.66587326 2.51283,1.97187176 2.204348,2.48365336 -0.418054,0.6935216 -10.447339,24.1962735 -10.447339,24.4824135 0,0.147034 1.067355,2.631345 2.371906,5.52074 1.784229,3.95179 2.966648,6.070785 4.772284,8.552228 l 2.400378,3.298783 0.0076,6.475116 c 0.0095,7.333847 -0.259778,13.868975 -0.553559,13.429817 -0.108359,-0.162015 -0.496803,-4.352056 -0.863216,-9.311187 L 84.466702,46.912167 83.615023,46.09166 c -0.468406,-0.451282 -1.421302,-1.244195 -2.117527,-1.762034 l -1.265887,-0.941518 -5.555765,6.853542 -5.555765,6.853546 0.0017,6.145133 c 0.0019,6.854173 -0.314317,4.858193 3.377579,21.315413 l 1.743101,7.770137 -0.105138,8.779831 -0.105139,8.77985 6.010494,3.59886 6.010475,3.59887 -0.159318,1.12655 c -0.415515,2.93692 -4.397783,22.92178 -4.627743,23.22424 -0.313634,0.41254 -0.253431,-0.0864 0.835785,-6.92744 0.453649,-2.84905 1.206214,-7.57599 1.672422,-10.50429 0.466171,-2.92828 0.788748,-5.52596 0.71678,-5.77261 -0.07199,-0.24664 -0.996448,-0.87689 -2.054482,-1.40059 -1.058054,-0.52372 -3.759204,-1.95204 -6.002632,-3.17408 l -4.07892,-2.22188 -0.218896,-9.18366 -0.218897,-9.183636 -2.414643,-9.524 c -1.32806,-5.238194 -2.521202,-9.437371 -2.651422,-9.331507 -0.130334,0.105847 -0.893071,1.727616 -1.695212,3.60389 -0.802065,1.876271 -3.710631,8.156738 -6.463366,13.956594 l -5.005028,10.545189 1.808912,11.82722 c 0.994933,6.50497 1.967094,12.01597 2.160417,12.24665 0.193284,0.23071 2.59497,2.78436 5.337076,5.67484 2.742069,2.89048 5.066047,5.42662 5.164347,5.63585 0.09851,0.20923 -0.16538,4.40476 -0.586237,9.32341 l -0.764992,8.94297 0.995179,3.80082 0.995178,3.80078 -1.275339,4.269 c -0.701454,2.34791 -1.344049,4.17863 -1.427989,4.06819 -0.08392,-0.11051 0.269078,-2.03132 0.784541,-4.26862 l 0.937192,-4.0679 -1.176889,-3.80114 -1.176907,-3.80113 0.324016,-8.45392 c 0.275179,-7.17966 0.264627,-8.49958 -0.06971,-8.75657 -0.216642,-0.16642 -0.773687,-0.66134 -1.237831,-1.09983 -4.588396,-4.3344 -7.240027,-6.6545 -7.429466,-6.50053 -0.125219,0.10192 -0.30977,0.98067 -0.409945,1.95287 -0.100213,0.97219 -0.555207,4.3484 -1.011243,7.50274 -0.456055,3.1543 -1.226692,8.4824 -1.712545,11.84019 l -0.883353,6.1051 -4.217285,4.25508 c -2.319545,2.3403 -5.534548,5.58709 -7.144474,7.21513 l -2.92717,2.96007 -0.0019,13.18103 -0.0019,13.18109 1.476884,2.17833 c 0.812256,1.19809 3.370361,5.06295 5.684659,8.58852 l 4.207832,6.41016 2.262202,-0.29912 c 1.244196,-0.1647 2.890759,-0.30377 3.659009,-0.30905 l 1.396846,-0.009 2.522964,5.58394 2.522945,5.58393 3.112839,2.09514 c 1.712052,1.15235 3.271133,2.22926 3.464626,2.39317 0.27139,0.22981 0.09017,1.64613 -0.792896,6.19619 -0.629581,3.24395 -1.26259,6.05631 -1.406696,6.24964 -0.369311,0.49547 -0.371262,0.51093 0.745839,-5.90789 0.554279,-3.18502 0.965721,-5.83227 0.914231,-5.88276 -0.05153,-0.0506 -1.561998,-1.01532 -3.356703,-2.14413 l -3.263139,-2.0524 -2.613667,-5.40992 c -1.437518,-2.97544 -2.69075,-5.40665 -2.784939,-5.4027 -0.729586,0.0298 -5.730845,1.07704 -5.841155,1.2221 -0.0771,0.10135 -0.383651,4.48675 -0.68124,9.74522 l -0.541094,9.56086 1.063338,1.29502 c 0.584836,0.71225 1.668312,2.01506 2.407691,2.89512 2.220677,2.64318 1.346265,2.41269 -1.220326,-0.3216 -1.315103,-1.40106 -2.478257,-2.55323 -2.58476,-2.5604 -0.106464,-0.006 -2.497655,3.52511 -5.313681,7.84956 -6.216394,9.54635 -5.885521,9.06989 -5.885521,8.47626 z"
   id="path23918"
   sodipodi:nodetypes="sscsscsscssssscsscscccsssssscsscccccsssscccccsccssssssccsscccccccccssssssscccccccscscsscsssssssssscssccscssssssssccsscsscccsscccccssssssscccsssscssssccccssscccssssssscsscccssccccccssssssscscsscssscsccs" /></svg>
