<?xml version="1.0" encoding="UTF-8" standalone="no"?>
<!-- Uploaded to: SVG Repo, www.svgrepo.com, Generator: SVG Repo Mixer Tools -->

<svg
   fill="#000000"
   version="1.1"
   id="Capa_1"
   width="125"
   height="275"
   viewBox="0 0 87.549531 192.60863"
   xml:space="preserve"
   sodipodi:docname="lightning-strike-m.svg"
   inkscape:version="1.1.2 (0a00cf5339, 2022-02-04)"
   xmlns:inkscape="http://www.inkscape.org/namespaces/inkscape"
   xmlns:sodipodi="http://sodipodi.sourceforge.net/DTD/sodipodi-0.dtd"
   xmlns="http://www.w3.org/2000/svg"
   xmlns:svg="http://www.w3.org/2000/svg"><defs
   id="defs22778" /><sodipodi:namedview
   id="namedview22776"
   pagecolor="#ffffff"
   bordercolor="#000000"
   borderopacity="0.25"
   inkscape:pageshadow="2"
   inkscape:pageopacity="0.0"
   inkscape:pagecheckerboard="0"
   showgrid="false"
   inkscape:zoom="1.2791071"
   inkscape:cx="-53.94388"
   inkscape:cy="191.93076"
   inkscape:window-width="1920"
   inkscape:window-height="1016"
   inkscape:window-x="0"
   inkscape:window-y="0"
   inkscape:window-maximized="1"
   inkscape:current-layer="Capa_1" />
<g
   id="g22773"
   transform="matrix(0.33012899,0,0,1.0000018,5.7151902e-8,-5e-4)">
	<g
   id="g22771">
		
	</g>
</g>
<path
   style="fill:#ffffcf;fill-opacity:1;stroke-width:0.237182"
   d="m 50.856444,188.46906 -2.833356,-4.40427 -0.02625,-7.81193 c -0.01472,-4.29654 -0.04986,-8.0574 -0.07874,-8.35747 -0.02875,-0.30008 -0.570248,-2.38695 -1.203185,-4.63747 -0.983596,-3.49736 -1.228238,-4.7642 -1.683804,-8.71937 -0.293123,-2.5451 -0.553292,-4.65434 -0.578136,-4.68718 -0.06152,-0.0814 -7.456449,-2.24041 -7.486766,-2.18593 -0.0125,0.0243 -0.718581,1.64912 -1.567385,3.61174 l -1.543276,3.56845 1.44855,2.50999 1.448522,2.50999 -0.363853,6.6064 c -0.200119,3.63354 -0.445414,6.79058 -0.545098,7.01562 -0.133042,0.30039 -0.182732,0.19158 -0.186551,-0.4092 -0.0069,-1.11825 0.367977,-9.46003 0.511046,-11.36023 l 0.115961,-1.5397 -1.678471,-2.62023 -1.678499,-2.62024 0.617299,-1.56868 c 0.339522,-0.86281 1.096349,-2.73483 1.681846,-4.16008 0.865733,-2.10733 1.045965,-2.76976 0.964931,-3.54628 -0.05486,-0.52524 -0.165233,-3.28795 -0.245503,-6.13934 l -0.14593,-5.18442 1.437954,-3.13576 c 0.790879,-1.72468 2.009924,-4.37994 2.708993,-5.90065 0.69911,-1.52071 1.271081,-2.91304 1.271081,-3.09411 0,-0.29046 -3.256008,-12.04223 -3.383051,-12.21028 -0.02764,-0.0365 -2.270412,-0.31207 -4.98414,-0.61253 l -4.934063,-0.54633 -6.070254,1.98698 -6.07024,1.98703 -1.920808,7.35147 c -1.05645,4.04329 -1.92085,7.48219 -1.92085,7.64196 0,0.1598 1.77217,2.6162 3.938148,5.45867 l 3.938176,5.16814 -0.100129,7.26878 -0.100129,7.26876 -3.349137,8.14399 c -1.842038,4.47919 -3.725225,9.05896 -4.184901,10.1772 -0.459662,1.11826 -0.872413,1.88781 -0.917186,1.71013 -0.07347,-0.29107 0.493006,-1.79611 4.180096,-11.10873 0.594038,-1.50034 1.648529,-4.16822 2.343349,-5.92859 l 1.263318,-3.20067 v -6.92141 -6.92142 l -3.041779,-3.77385 c -4.673755,-5.79861 -4.31368,-5.39446 -4.311,-4.83914 0.0014,0.26773 -0.01472,2.69845 -0.03444,5.40161 l -0.0368,4.91477 -4.9056909,3.23568 -4.9057325,3.23563 -0.6889172,3.24431 c -0.37890665,1.78436 -0.76972865,3.31038 -0.86848265,3.39113 -0.253183,0.20692 -0.2493918,0.17746 0.4521353,-3.51586 0.34743753,-1.82916 0.74182865,-3.46271 0.87644025,-3.63013 0.1345699,-0.16747 2.1935168,-1.62538 4.5753893,-3.2399 2.381847,-1.61455 4.4355864,-3.07341 4.5638654,-3.2419 0.167275,-0.21982 0.196453,-1.96015 0.103045,-6.15539 l -0.130126,-5.84903 2.034103,-8.33618 c 1.118763,-4.58492 2.052558,-8.36435 2.075139,-8.39876 0.02264,-0.0345 10.001834,-1.88926 6.397319,-2.30556 l 6.356253,-2.24298 0.311567,-0.96795 c 0.452427,-1.40558 2.531857,-8.413246 4.127073,-13.908262 l 1.380848,-4.756535 2.372554,-2.0294 c 1.304898,-1.116173 2.402358,-2.063608 2.438757,-2.105384 0.03639,-0.04179 -1.030786,-2.567247 -2.371555,-5.612171 L 33.27826,71.90042 30.506481,69.515602 c -1.524458,-1.311631 -2.846854,-2.323405 -2.938637,-2.248365 -0.0918,0.07506 -0.166913,1.092386 -0.166913,2.260762 0,1.16839 -0.05875,3.21991 -0.130682,4.558923 l -0.130684,2.4346 -3.49054,2.309538 c -1.919822,1.270249 -3.608361,2.495217 -3.752333,2.722167 -0.143902,0.226949 -1.035202,2.06984 -1.980552,4.09533 -2.129996,4.563623 -5.212673,11.149048 -6.052714,12.93021 -0.346702,0.735091 -0.66274,1.208083 -0.702277,1.051095 -0.0943,-0.373525 7.310296,-20.312386 7.637194,-20.565647 1.417553,-1.098289 4.833823,-4.036838 5.189384,-4.463748 0.451983,-0.542615 0.453385,-0.574036 0.259349,-5.774057 l -0.195105,-5.228482 2.860214,-4.144442 c 1.57312,-2.27945 3.20761,-4.671337 3.632206,-5.315322 l 0.771992,-1.170879 0.29929,-4.323374 c 0.164706,-2.377855 0.234837,-4.401309 0.156054,-4.496569 -0.12846,-0.155235 -2.235568,-1.447369 -9.689906,-5.942021 -1.2809,-0.772322 -2.412898,-1.335546 -2.515582,-1.25161 -0.174455,0.142647 -5.32844,7.874786 -5.963182,8.946159 -0.213173,0.359796 -0.327134,1.900878 -0.433415,5.86054 l -0.144263,5.372376 -1.720425,2.099673 -1.7204119,2.099675 1.3075219,6.361374 c 2.150702,10.463586 1.995009,10.564712 -0.708707,0.460343 L 8.2654236,60.986137 9.9063574,58.654767 11.547235,56.323394 11.434468,54.004661 C 11.372388,52.72936 11.302537,50.212849 11.27897,48.41242 l -0.0425,-3.273505 3.188279,-5.592241 c 1.753533,-3.075717 4.567085,-8.311612 6.252333,-11.635279 l 3.06411,-6.043041 -3.016337,-9.974642 C 19.065872,6.4076565 17.708522,1.8173722 17.708522,1.6930715 c 0,-0.1242881 0.694222,-0.6040122 1.542734,-1.06602822 1.098252,-0.59800253 1.59316,-0.75158055 1.717731,-0.53303868 0.192051,0.33694406 6.435204,22.0074434 6.433177,22.3301454 -0.0014,0.167844 2.320268,10.119422 -5.364492,10.32694 l -0.374129,0.706204 6.11668,3.826169 6.116652,3.826174 5.765077,0.447659 c 3.170794,0.246211 5.82775,0.539019 5.904354,0.65068 0.07652,0.111652 0.527961,3.208852 1.002997,6.882657 0.475049,3.673803 0.880481,6.699757 0.900937,6.724344 0.101379,0.121839 13.51508,10.570183 13.975839,10.886265 0.293832,0.201581 2.66022,0.937868 5.258641,1.636192 2.598407,0.698338 4.82417,1.411141 4.946158,1.584029 0.122071,0.172875 1.041966,2.032919 2.044449,4.13342 1.002483,2.100501 1.92346,3.963739 2.04667,4.140539 0.14868,0.213512 1.643461,0.386303 4.451499,0.514601 l 4.227536,0.193151 1.627962,5.15194 c 0.895383,2.833566 1.568191,5.231019 1.495101,5.3277 -0.172247,0.227933 -0.16322,0.247576 -0.848485,-1.824712 -0.322537,-0.975239 -0.270667,-4.705373 -1.687734,-4.868553 l -1.101306,-3.095411 -4.261116,0.09469 -4.261088,0.09469 -2.229291,-4.197442 c -1.226113,-2.308595 -2.264149,-4.24358 -2.306769,-4.299963 -0.04277,-0.05642 -1.860148,-0.932997 -4.107062,-1.000707 l -4.029541,-0.898187 0.716053,2.061047 c 0.393822,1.133579 1.125651,3.258675 1.626268,4.722469 l 0.910228,2.661437 v 7.526303 7.526302 l 1.05102,4.81583 c 0.578068,2.648693 1.51053,6.952143 2.072126,9.563183 0.561639,2.61104 1.132651,5.02094 1.268957,5.35534 0.136375,0.33438 2.389594,3.72211 5.007249,7.52827 2.617697,3.80619 5.057022,7.37125 5.42075,7.92232 l 0.66135,1.00198 -0.617549,5.95422 c -1.871493,18.04408 -2.538802,23.9859 -2.721297,24.23126 -0.133459,0.17917 -0.162498,-0.10145 -0.08499,-0.81837 0.06472,-0.60013 0.533627,-5.69453 1.041688,-11.32086 0.508088,-5.62634 1.062935,-11.62154 1.233043,-13.32269 0.170039,-1.70117 0.309303,-3.42186 0.309303,-3.8238 0,-0.76215 -0.725122,-1.85923 -7.328462,-11.08749 -1.610381,-2.25054 -3.158851,-4.46016 -3.441087,-4.91027 -0.363866,-0.58033 -1.096807,-3.35757 -2.519803,-9.54772 -1.103668,-4.80114 -2.04506,-8.780496 -2.091944,-8.843012 -0.143347,-0.190984 -0.192703,-0.02913 -1.400415,4.585892 -0.800587,3.05932 -1.757116,5.96061 -3.027628,9.18335 l -1.857273,4.71113 1.010732,2.27392 c 1.25175,2.81611 5.656713,12.96387 5.99004,13.79939 0.134709,0.33758 0.161581,0.61378 0.05985,0.61378 -0.101795,0 -0.0042,-7.23305 -3.961034,-8.35108 l -3.775942,-8.35104 1.896199,-5.08396 c 1.441259,-3.8642 2.196642,-6.32749 3.148519,-10.26699 l 1.252347,-5.183051 -0.02958,-7.438261 -0.02986,-7.438262 -2.000563,-5.38297 -2.00055,-5.382984 -6.599063,-4.831766 C 50.270887,61.382581 46.848021,58.866095 46.294007,58.447825 L 45.286746,57.687358 44.383073,51.69505 c -0.49702,-3.295771 -0.971764,-6.073498 -1.054936,-6.172737 -0.08319,-0.09924 -2.076834,-0.258731 -4.430349,-0.354423 -3.501914,-0.142381 -4.279072,-0.107699 -4.279072,0.191091 0,0.200803 1.471297,4.402547 -0.326343,4.701147 l -0.326356,4.336061 -1.168744,1.703942 c -0.642811,0.937177 -2.028408,2.92311 -3.079109,4.413196 l -1.910364,2.709256 3.618707,3.224982 3.618749,3.224984 1.782711,4.237109 c 0.980499,2.330418 2.067724,4.924371 2.416064,5.764346 0.348313,0.839976 0.77252,1.777533 0.942656,2.083462 0.170761,0.307026 1.972289,1.507835 4.021306,2.680362 2.041574,1.168291 3.794454,2.218035 3.895305,2.332783 0.100823,0.114819 -0.618369,2.184026 -1.598215,4.598434 -0.97986,2.414395 -1.779767,4.539434 -1.777572,4.7223 0.0014,0.182865 0.467231,1.487039 1.033466,2.898151 0.566249,1.411094 0.980527,2.630474 0.92063,2.709714 -0.138945,0.18382 0.99122,-2.645663 -1.837427,-2.910674 l -1.393278,-2.545563 0.519948,-1.819112 c 0.285972,-1.000509 2.270357,-3.986491 1.250931,-4.078445 l 0.730931,-2.259327 -0.459927,-0.221714 c -0.252933,-0.121995 -1.67879,-0.80477 -3.168558,-1.517404 l -2.708673,-1.295689 -2.350446,1.962466 -2.350446,1.962479 -0.758535,2.496245 c -0.417194,1.372923 -1.635378,5.319637 -2.707076,8.770468 -1.071685,3.4508 -1.919725,6.31318 -1.88452,6.36082 0.03513,0.0477 2.133245,0.3892 4.662353,0.759 2.529067,0.3698 4.649452,0.73865 4.711946,0.81967 0.06263,0.0811 0.909436,3.10085 1.882103,6.71071 l 1.76849,6.56341 4.624371,2.84954 c 2.543398,1.56724 4.879581,2.98961 5.191495,3.16081 0.311899,0.17117 0.567096,0.39197 0.567096,0.49064 0,0.0987 -0.60319,1.92824 -1.340436,4.06568 -0.737245,2.13744 -1.338602,4.02459 -1.33638,4.19366 0.0014,0.16917 0.69918,1.71912 1.548734,3.44453 2.442631,4.96084 2.320476,4.3014 1.429066,7.71496 -0.419945,1.60815 -0.845083,2.92392 -0.944712,2.92392 -0.229713,0 -0.273361,0.27219 0.437512,-2.7279 0.337716,-1.42536 0.615092,-2.76119 0.616341,-2.96857 0.0014,-0.2074 -0.630839,-1.55766 -1.404706,-3.00071 -0.773854,-1.44301 -1.421567,-3.90077 -2.079334,-3.93335 l -0.672308,-1.30963 1.160926,-3.83802 c 0.638505,-2.1109 1.133428,-3.86529 1.099779,-3.89872 -0.03361,-0.0335 -0.896327,-0.50304 -1.917128,-1.04365 -1.020787,-0.54058 -2.948192,-2.38099 -4.553267,-2.46451 l -2.697272,-1.48158 -2.6973,5.62695 -2.6973,5.62694 0.141889,5.64548 c 0.07805,3.105 0.185579,5.69979 0.239059,5.76614 0.05361,0.0665 1.814013,0.64012 3.912318,1.27495 2.09829,0.63485 3.876695,1.23174 3.952035,1.32644 0.07527,0.0947 0.334716,2.19767 0.57647,4.67324 0.361658,3.70351 0.628659,5.26473 1.506724,8.81055 0.58697,2.3702 1.116319,4.41364 1.176397,4.54095 0.05999,0.12734 1.733215,0.9891 3.718086,1.91503 3.204138,1.49469 4.426627,2.19817 3.804787,2.18943 -0.107906,-0.003 -1.815527,-0.67226 -3.79501,-1.49054 -1.979524,-0.81828 -3.627707,-1.44997 -3.662675,-1.4037 -0.035,0.0463 0,3.67996 0.07569,8.07493 l 0.139124,7.99087 2.559092,4.06264 c 1.407498,2.23444 2.528108,4.18562 2.490209,4.33598 -0.03791,0.15044 -1.343893,-1.70855 -2.90221,-4.13087 z"
   id="path23918"
   sodipodi:nodetypes="ccccssscscccsscscccsssscssssscccssscccssssscccscccccssscssccssscsscssscsssccsssscssscssccssssccccsscccsccsscsssscscccsssssssscscscsscccssscsscccssssscsccscsssscsscsssscsscccccsscssssscsscccsssssscssscsscsscccsssssscsssscsssscsscsssscccsssssscscssccsssc" /></svg>
