<?xml version="1.0" encoding="UTF-8" standalone="no"?>
<!-- Uploaded to: SVG Repo, www.svgrepo.com, Generator: SVG Repo Mixer Tools -->

<svg
   fill="#000000"
   version="1.1"
   id="Capa_1"
   width="125"
   height="800"
   viewBox="0 0 87.549531 560.316"
   xml:space="preserve"
   sodipodi:docname="lightning-strike-r.svg"
   inkscape:version="1.1.2 (0a00cf5339, 2022-02-04)"
   xmlns:inkscape="http://www.inkscape.org/namespaces/inkscape"
   xmlns:sodipodi="http://sodipodi.sourceforge.net/DTD/sodipodi-0.dtd"
   xmlns="http://www.w3.org/2000/svg"
   xmlns:svg="http://www.w3.org/2000/svg"><defs
   id="defs22778" /><sodipodi:namedview
   id="namedview22776"
   pagecolor="#ffffff"
   bordercolor="#000000"
   borderopacity="0.25"
   inkscape:pageshadow="2"
   inkscape:pageopacity="0.0"
   inkscape:pagecheckerboard="0"
   showgrid="false"
   inkscape:zoom="1.2791071"
   inkscape:cx="-53.943882"
   inkscape:cy="76.22505"
   inkscape:window-width="1920"
   inkscape:window-height="1016"
   inkscape:window-x="0"
   inkscape:window-y="0"
   inkscape:window-maximized="1"
   inkscape:current-layer="Capa_1" />
<g
   id="g22773"
   transform="matrix(0.33012899,0,0,1.0000018,5.7151902e-8,-5e-4)">
	<g
   id="g22771">
		
	</g>
</g>
<path
   style="fill:#000000;stroke-width:0.169671"
   d="m 19.90582,133.22104 c 0,-0.23313 0.54817,-1.16356 2.08671,-3.5417 0.3718,-0.5747 1.32658,-2.06233 2.12173,-3.30588 l 1.44571,-2.26097 0.13439,-3.07046 c 0.0739,-1.68874 0.17911,-4.07373 0.23379,-5.29995 l 0.0994,-2.22951 -2.4887,-3.58659 c -1.3688,-1.97264 -2.84643,-4.09139 -3.28363,-4.70834 l -0.79489,-1.12172 v -6.681548 c 0,-5.21861 -0.0407,-6.68044 -0.18562,-6.6766 -0.10203,0.003 -1.46356,0.42612 -3.02547,0.9409 -2.7163,0.89526 -3.15063,1.12482 -4.11905,2.17703 -0.0705,0.0766 0.2496,0.74975 0.71134,1.49589 l 0.83954,1.35658 -1.04018,4.307878 c -0.57211,2.36932 -1.07597,4.35461 -1.11971,4.41171 -0.20847,0.27215 -0.0133,-0.90268 0.74652,-4.481 0.9359,-4.410738 0.94801,-4.140278 -0.25493,-5.687588 l -0.73059,-0.93973 h -2.4683602 -2.46836 l -2.58484,5.23448 c -1.42166,2.878978 -2.85897001,5.800958 -3.19402001,6.493318 -0.33505,0.69233 -0.63385,1.16219 -0.66399,1.04413 -0.0466,-0.18257 1.47172001,-3.48052 5.40286001,-11.735528 0.43943,-0.92278 0.88058,-1.71826 0.98031,-1.76778 0.0998,-0.0495 1.28126,-0.1066 2.62565,-0.12689 l 2.4443202,-0.0369 0.77551,-0.86499 c 0.8264,-0.92177 0.82905,-0.92311 5.10166,-2.60713 l 2.59864,-1.02423 3.50535,-3.6707 3.50537,-3.67069 0.97055,-7.70093 0.97055,-7.70093 -0.55519,-3.284 c -0.30534,-1.8062 -0.64386,-3.86865 -0.75224,-4.58323 -0.10839,-0.71458 -0.24869,-1.25758 -0.31179,-1.20667 -0.0631,0.0509 -0.29419,0.81202 -0.51353,1.69136 l -0.3988,1.59879 -1.74128,0.9598 -1.74129,0.9598 -0.0953,2.31357 c -0.0523,1.27247 -0.0963,2.97601 -0.0975,3.78564 -0.003,1.74507 -0.22402,2.47279 -0.35449,1.16552 -0.047,-0.47118 -0.10296,-2.45814 -0.12416,-4.41548 l -0.0387,-3.55879 1.48493,-1.04142 c 0.81672,-0.57278 1.54059,-1.06753 1.60859,-1.09944 0.11966,-0.0561 1.28705,-5.94693 1.28705,-6.49461 0,-0.14911 1.12895,-2.728955 2.50878,-5.732993 1.37983,-3.004038 2.65795,-5.810852 2.84029,-6.237367 0.18234,-0.426513 0.86087,-2.014483 1.50783,-3.528822 l 1.17631,-2.753339 -0.0252,-2.060014 c -0.0166,-1.34886 -0.0843,-2.089615 -0.19638,-2.145767 -0.0941,-0.04716 -1.90697,0.688439 -4.02852,1.63468 l -3.85735,1.720437 -0.0742,3.566412 -0.0742,3.566413 -3.04412,1.953579 -3.04413,1.95358 -1.18794,1.872576 -1.18796,1.872577 -3.23418,-0.04569 -3.23419,-0.04569 -0.15904,0.775479 c -1.4026202,6.839189 -1.6721902,8.045609 -1.7977702,8.045609 -0.0623,0 -0.1133,-0.0239 -0.1133,-0.0531 0,-0.31676 1.6747802,-9.187161 1.7519002,-9.278875 0.0574,-0.06821 1.49788,-0.169195 3.20117,-0.224411 1.70328,-0.05522 3.15843,-0.180751 3.23365,-0.278961 0.0753,-0.09821 0.61947,-0.94957 1.20944,-1.891911 l 1.07267,-1.713343 2.67289,-1.873514 2.6729,-1.873512 0.0401,-3.779191 0.0402,-3.779193 4.64002,-2.281868 4.64001,-2.281868 3.0837,-3.908186 c 1.69605,-2.149503 3.08142,-3.972068 3.07862,-4.050148 -0.003,-0.07807 -0.47922,-1.137777 -1.0587,-2.35488 l -1.05363,-2.212922 -0.76543,-0.114214 c -0.42098,-0.06282 -1.56796,-0.129093 -2.54886,-0.147276 l -1.78345,-0.03306 -2.08904,1.969019 c -1.14898,1.082957 -2.19379,1.969015 -2.32182,1.969015 -0.12801,0 -1.05437,-0.256568 -2.05853,-0.570152 -1.00415,-0.313584 -1.88128,-0.525342 -1.94915,-0.470575 -0.0678,0.05477 -0.38358,0.55125 -0.70156,1.103294 -0.31798,0.552046 -1.29026,2.175757 -2.16062,3.608248 -0.87037,1.432495 -1.67635,2.779475 -1.79106,2.993289 -0.11475,0.213818 -0.25406,0.32936 -0.30966,0.256766 -0.0973,-0.127017 4.27814,-8.882265 4.60959,-9.223795 0.0938,-0.09667 1.00729,0.01972 2.16567,0.275918 l 2.00342,0.443108 0.81173,-0.904413 c 0.44646,-0.497428 1.3776,-1.536914 2.06922,-2.309971 l 1.25748,-1.405558 1.27315,-0.02277 c 0.70022,-0.01246 1.93152,-0.07795 2.7362,-0.145407 l 1.46307,-0.122623 0.33039,-0.77548 c 0.18172,-0.426514 0.68492,-1.647894 1.11823,-2.7141802 1.92584,-4.739087 3.91077,-9.51837903 4.03923,-9.72567003 0.10269,-0.165752 0.3855,-0.04496 1.06033,0.45291 1.18309,0.872857 1.32646,1.033189 1.16362,1.30134403 -0.22068,0.36338 -5.51489,12.6779662 -5.51489,12.8278932 0,0.07704 0.56343,1.378729 1.25207,2.892667 0.94185,2.070594 1.56602,3.18087 2.51917,4.481056 l 1.2671,1.728442 0.004,3.392725 c 0.005,3.842669 -0.13713,7.266838 -0.29221,7.036735 -0.0572,-0.08489 -0.26225,-2.280319 -0.45567,-4.878723 l -0.35164,-4.724377 -0.44958,-0.429916 c -0.24726,-0.236455 -0.75027,-0.651913 -1.11779,-0.923242 l -0.66823,-0.493321 -2.93275,3.591007 -2.93275,3.591008 8.8e-4,3.219826 c 0.001,3.591337 -0.16592,2.545516 1.78294,11.1685 l 0.92014,4.071269 -0.0555,4.600317 -0.0555,4.60032 3.17279,1.88567 3.17278,1.88568 -0.0841,0.59027 c -0.21934,1.53884 -2.32148,12.01018 -2.44287,12.16866 -0.16556,0.21615 -0.13378,-0.0453 0.44119,-3.62973 0.23947,-1.4928 0.63673,-3.96954 0.88283,-5.50386 0.24608,-1.53432 0.41636,-2.89541 0.37837,-3.02464 -0.038,-0.12923 -0.526,-0.45946 -1.08451,-0.73386 -0.55852,-0.27441 -1.98439,-1.0228 -3.16864,-1.6631 l -2.15316,-1.16419 -0.11555,-4.8119 -0.11555,-4.811896 -1.27463,-4.990229 c -0.70105,-2.744623 -1.33088,-4.944839 -1.39962,-4.88937 -0.0688,0.05546 -0.47143,0.905208 -0.89486,1.888307 -0.42339,0.983098 -1.95875,4.273834 -3.41185,7.312747 l -2.64203,5.525301 0.95488,6.19703 c 0.5252,3.40837 1.03838,6.29593 1.14043,6.4168 0.10203,0.12088 1.36982,1.4589 2.81731,2.97341 1.44747,1.51451 2.67424,2.84335 2.72613,2.95298 0.052,0.10963 -0.0873,2.30793 -0.30946,4.88513 l -0.40382,4.68579 0.52533,1.99149 0.52533,1.99147 -0.67322,2.2368 c -0.37028,1.23022 -0.70949,2.18945 -0.7538,2.13158 -0.0443,-0.0579 0.14204,-1.06433 0.41414,-2.2366 l 0.49472,-2.13143 -0.62125,-1.99166 -0.62126,-1.99165 0.17104,-4.42955 c 0.14526,-3.76188 0.13969,-4.45347 -0.0368,-4.58812 -0.11436,-0.0872 -0.40841,-0.34652 -0.65342,-0.57627 -2.4221,-2.27107 -3.82183,-3.48672 -3.92183,-3.40604 -0.0661,0.0534 -0.16352,0.51383 -0.2164,1.02323 -0.0529,0.50939 -0.29308,2.2784 -0.53381,3.93116 -0.24074,1.65274 -0.64754,4.44447 -0.90401,6.20383 l -0.4663,3.19885 -2.2262,2.22951 c -1.22443,1.22623 -2.92155,2.92743 -3.77139,3.78046 l -1.54518,1.55097 -0.001,6.90638 -10e-4,6.906408 0.77961,1.14137 c 0.42877,0.62775 1.77913,2.6528 3.00079,4.50007 l 2.22121,3.35869 1.19416,-0.15673 c 0.65678,-0.0863 1.52596,-0.15916 1.9315,-0.16193 l 0.73736,-0.005 1.33181,2.92578 1.3318,2.92578 1.64319,1.09777 c 0.90375,0.60379 1.72675,1.16805 1.82889,1.25394 0.14326,0.12041 0.0476,0.86251 -0.41855,3.24658 -0.33234,1.69971 -0.66649,3.17328 -0.74256,3.27458 -0.19495,0.25961 -0.19598,0.26771 0.39371,-3.09552 0.29259,-1.66883 0.50978,-3.0559 0.4826,-3.08235 -0.0272,-0.0265 -0.82454,-0.53199 -1.77192,-1.12345 l -1.72253,-1.07538 -1.37969,-2.8346 c -0.75883,-1.55902 -1.42038,-2.83289 -1.4701,-2.83082 -0.38513,0.0156 -3.02517,0.56433 -3.0834,0.64034 -0.0407,0.0531 -0.20252,2.35089 -0.35961,5.10614 l -0.28563,5.00954 0.56131,0.67854 c 0.30872,0.3732 0.88066,1.05582 1.27096,1.51694 1.17224,1.38493 0.71066,1.26416 -0.64418,-0.16851 -0.69421,-0.7341 -1.30821,-1.3378 -1.36443,-1.34155 -0.0562,-0.003 -1.31845,1.84703 -2.80496,4.11288 -3.28148,5.00194 -3.10682,4.75229 -3.10682,4.44125 z"
   id="path23918"
   sodipodi:nodetypes="sscsscsscssssscsscscccsssssscsscccccsssscccccsccssssssccsscccccccccssssssscccccccscscsscsssssssssscssccscssssssssccsscsscccsscccccssssssscccsssscssssccccssscccssssssscsscccssccccccssssssscscsscssscsccs" /></svg>
