<?xml version="1.0" encoding="UTF-8" standalone="no"?>
<!-- Uploaded to: SVG Repo, www.svgrepo.com, Generator: SVG Repo Mixer Tools -->

<svg
   fill="#000000"
   version="1.1"
   id="Capa_1"
   width="125"
   height="420"
   viewBox="0 0 87.549531 294.1659"
   xml:space="preserve"
   sodipodi:docname="lightning-strike-l.svg"
   inkscape:version="1.1.2 (0a00cf5339, 2022-02-04)"
   xmlns:inkscape="http://www.inkscape.org/namespaces/inkscape"
   xmlns:sodipodi="http://sodipodi.sourceforge.net/DTD/sodipodi-0.dtd"
   xmlns="http://www.w3.org/2000/svg"
   xmlns:svg="http://www.w3.org/2000/svg"><defs
   id="defs22778" /><sodipodi:namedview
   id="namedview22776"
   pagecolor="#ffffff"
   bordercolor="#000000"
   borderopacity="0.25"
   inkscape:pageshadow="2"
   inkscape:pageopacity="0.0"
   inkscape:pagecheckerboard="0"
   showgrid="false"
   inkscape:zoom="1.2791071"
   inkscape:cx="-53.94388"
   inkscape:cy="255.25619"
   inkscape:window-width="1920"
   inkscape:window-height="1016"
   inkscape:window-x="0"
   inkscape:window-y="0"
   inkscape:window-maximized="1"
   inkscape:current-layer="Capa_1" />
<g
   id="g22773"
   transform="matrix(0.33012899,0,0,1.0000018,5.7151902e-8,-5e-4)">
	<g
   id="g22771">
		
	</g>
</g>
<path
   style="fill:#ffffff;stroke-width:0.333483;fill-opacity:1"
   d="m 47.193684,291.85892 c 0.317077,-1.10031 1.34991,-4.6473 2.295204,-7.88218 l 1.718697,-5.88163 -0.673147,-3.28411 c -1.847724,-9.01496 -3.494309,-16.02104 -5.086454,-21.64284 -0.966619,-3.413 -1.757473,-6.36764 -1.757473,-6.56584 0,-0.19825 0.770924,-2.5337 1.713173,-5.18999 l 1.713173,-4.82967 -1.640237,-1.97031 c -0.902115,-1.08369 -2.165509,-2.58788 -2.807583,-3.3426 l -1.167422,-1.37229 -2.188838,2.7635 -2.188877,2.76344 -3.390418,0.89057 -3.3904,0.89054 -0.184746,2.85346 c -0.101611,1.56947 -0.18455,3.54789 -0.18455,4.39648 0,0.92194 -0.104953,1.39725 -0.26071,1.18096 -0.143473,-0.19893 -0.307584,-2.41561 -0.364816,-4.92554 l -0.104165,-4.56357 3.64812,-1.50175 3.648122,-1.50174 1.453348,-2.41846 c 0.799345,-1.33016 1.73096,-2.84024 2.070246,-3.35579 0.44406,-0.67477 1.363667,-4.82118 3.282617,-14.80093 l 2.6657,-13.86361 -2.358922,-7.00956 -2.358942,-7.00951 0.480499,-3.04847 c 0.264286,-1.67667 0.656893,-4.01559 0.872476,-5.19761 l 0.391978,-2.14909 -3.164812,-6.32948 c -1.740648,-3.48118 -3.268604,-6.33101 -3.39545,-6.33291 -0.126768,-0.002 -1.445447,0.64114 -2.930222,1.42897 l -2.699623,1.43243 -0.912414,3.57498 c -0.765461,2.99929 -0.888278,3.96718 -0.762631,6.01046 l 0.149764,2.43551 -2.986611,3.68751 -2.986589,3.68755 0.971886,4.02013 c 0.534567,2.21107 0.974068,4.24149 0.976722,4.512 0.0059,0.4782 -5.129694,9.60622 -5.403354,9.60622 -0.348013,0 0.01376,-0.87206 2.046798,-4.95431 1.20107,-2.40989 2.186047,-4.56281 2.188877,-4.78424 0.0019,-0.22144 -0.525468,-2.18022 -1.173948,-4.35287 -0.648502,-2.17269 -1.140989,-4.17146 -1.094429,-4.44175 0.04659,-0.2703 1.233774,-2.11381 2.638303,-4.09673 2.436024,-3.43918 2.553673,-3.68561 2.553673,-5.34902 0,-1.14239 -0.125786,-1.74278 -0.364797,-1.74099 -0.200529,0.002 -2.316253,0.34446 -4.701336,0.76213 -2.385061,0.41765 -4.436125,0.75938 -4.557881,0.75938 -0.121658,0 -0.650584,1.50041 -1.175186,3.33426 -0.524642,1.83385 -1.069626,3.52687 -1.211153,3.7622 -0.141509,0.23538 -1.023125,0.7085 -1.959162,1.05147 l -1.70195,0.62349 -0.190055,4.05688 c -0.104754,2.23128 -0.190839,6.30224 -0.191625,9.04664 l -0.0014,4.98976 -3.4277621,2.90147 -3.4277418,2.90145 -0.6561657,3.35361 c -0.6467318,3.30541 -0.8252877,3.89749 -1.0764451,3.56956 -0.1316812,-0.17198 1.1290194,-7.50916 1.328487,-7.73102 0.061713,-0.0688 0.8346037,-0.78034 1.7174381,-1.58145 0.8828539,-0.80112 2.2477204,-2.05915 3.0330516,-2.79565 l 1.4278375,-1.33905 -0.2065234,-9.39529 -0.2065234,-9.3953 0.8214753,-0.41078 c 0.451804,-0.22588 1.32658,-0.63466 1.943969,-0.90838 1.255964,-0.55676 1.551028,-1.15163 2.520478,-5.08123 0.361946,-1.46709 0.806674,-2.86059 0.988277,-3.0967 0.181602,-0.23613 2.777295,-0.98724 5.768189,-1.66921 l 5.438023,-1.2399 0.637731,-3.15199 c 0.350744,-1.73358 0.792937,-3.39517 0.982657,-3.69242 0.18966,-0.29726 1.855232,-1.44577 3.701187,-2.55227 1.845935,-1.10651 3.454746,-2.13187 3.575126,-2.27859 0.120282,-0.14664 1.729211,-6.06127 3.575166,-13.14344 2.616663,-10.03908 3.353646,-13.30984 3.344409,-14.84229 l -0.01376,-1.96561 -0.790716,1.17348 c -0.634409,0.94148 -1.367678,1.38197 -3.709206,2.22811 -1.605175,0.58008 -3.067033,1.25235 -3.248538,1.49396 -0.181602,0.2416 -0.690363,1.89684 -1.130709,3.67829 -0.820905,3.32117 -1.31182,4.53724 -1.31182,3.24964 0,-1.07607 0.862355,-7.14244 1.139455,-8.01565 0.157625,-0.49678 1.231673,-1.29811 3.064518,-2.28635 l 2.821811,-1.52148 1.354687,-2.82832 c 0.884681,-1.84705 1.436287,-3.49962 1.589864,-4.76324 0.129519,-1.06422 0.875621,-4.0503 1.658358,-6.63573 l 1.423199,-4.70081 -1.275186,-5.39728 c -0.701369,-2.968491 -1.88823,-8.016614 -2.637516,-11.218045 -1.131811,-4.835779 -1.464747,-5.847313 -1.967456,-5.977511 -0.332839,-0.08621 -3.393248,-0.24833 -6.800924,-0.360296 l -6.195839,-0.20358 -2.851489,5.711944 -2.851489,5.711946 -6.155922,4.553052 -6.1558625,4.55305 -0.5197086,2.58464 c -2.4207143,12.03891 -1.9730569,10.78916 -6.4201885,17.92347 -2.44388625,3.92063 -2.01853615,2.2492 0.6633197,-2.60636 l 2.5349429,-4.58959 1.1682486,-7.37634 1.1682485,-7.37634 5.9519339,-5.078422 5.951934,-5.07842 2.692154,-6.218267 c 1.480688,-3.42005 2.812319,-6.37513 2.959134,-6.566847 0.146815,-0.191718 3.677248,-0.460703 7.845353,-0.597745 4.168145,-0.137037 7.600839,-0.269243 7.628276,-0.293795 0.02732,-0.02449 0.437398,-1.431204 0.911096,-3.125926 L 42.15455,74.109887 40.650238,69.76211 c -2.539659,-7.3401 -2.462852,-6.060772 -0.662749,-11.038566 0.86715,-2.397965 2.316352,-6.283674 3.220412,-8.634904 l 1.643775,-4.274962 -4.125318,-5.823113 c -2.268927,-3.202708 -4.226044,-5.970498 -4.349156,-6.150634 -0.200529,-0.293318 -5.054006,1.798328 -5.60919,2.417304 -0.181798,0.202631 0.202356,2.735642 1.24315,8.198823 0.231779,1.216716 -0.354262,1.930818 -4.44721,5.418753 -5.343331,4.553474 -5.180341,4.427553 -5.180341,4.0019 0,-0.187729 1.551067,-2.070179 3.446806,-4.1832 1.895699,-2.11302 3.604371,-4.089815 3.797019,-4.392874 0.280285,-0.44099 0.05838,-1.558719 -1.111999,-5.5975 -0.804257,-2.775562 -1.462271,-5.191817 -1.462271,-5.369448 0,-0.177646 1.785186,-1.553147 3.967025,-3.056688 l 3.967027,-2.733717 4.569575,-9.089092 c 2.513244,-4.998997 5.751523,-11.4876867 7.196164,-14.4193105 1.444682,-2.9316237 2.748837,-5.33541911 2.898167,-5.34176781 0.435551,-0.0182795 3.960285,3.08990281 3.960285,3.49251821 0,0.2013383 -2.922125,5.9588987 -6.493636,12.7945801 -3.57149,6.835681 -6.658688,12.815782 -6.860456,13.28912 -0.37423,0.877977 0.351098,2.06485 7.692976,12.588176 0.682561,0.978332 1.689766,1.582633 5.223363,3.133933 l 4.377734,1.921884 v 6.55146 6.551455 l 5.836978,5.873175 c 3.21035,3.230252 5.875992,6.012302 5.923653,6.182343 0.04776,0.170019 -0.576156,3.149414 -1.38629,6.620839 -0.810115,3.471426 -1.472963,6.631883 -1.472963,7.023236 0,0.391352 0.501292,2.326584 1.113984,4.300517 l 1.114004,3.588968 4.795969,2.676001 c 5.065954,2.826678 5.789475,3.338927 9.392549,6.650141 l 2.261831,2.07861 v 7.19858 7.19859 l 1.434442,4.34568 c 0.788928,2.39013 1.313452,4.34568 1.165576,4.34568 -0.147995,0 -0.970944,-1.94335 -1.828994,-4.31855 l -1.560148,-4.31857 -0.183371,-5.87477 c -0.100828,-3.23113 -0.185926,-6.26331 -0.18907,-6.73817 -0.0059,-0.67237 -0.654496,-1.41137 -2.938439,-3.34032 -2.283097,-1.92824 -4.14733,-3.07463 -8.415493,-5.174982 l -5.482711,-2.698033 -1.655351,-4.821833 -1.655332,-4.821834 1.164259,-5.906422 C 65.626817,76.836582 66.15305,73.99276 66.1559,73.765513 66.15782,73.462945 57.63915,65.295537 54.426264,62.52197 54.282988,62.398261 54.07385,59.667897 53.961587,56.454507 l -0.204185,-5.842526 -2.188877,-0.879646 c -1.20386,-0.483808 -2.405973,-0.882902 -2.671321,-0.88687 -0.33502,-0.0052 -1.339787,2.198578 -3.287274,7.209427 l -2.804811,7.216656 1.783239,5.362461 1.78322,5.362469 -1.379391,4.557033 -1.379411,4.557042 2.517432,11.517959 c 1.384598,6.334868 2.616487,11.629658 2.737536,11.766178 0.121068,0.13653 2.781049,0.97079 5.911131,1.85388 3.130083,0.8831 5.989316,1.76463 6.353837,1.95895 0.644826,0.34373 0.657463,0.45238 0.465956,4.00928 l -0.196874,3.65597 3.74588,4.90181 3.745899,4.90178 -1.045333,3.92647 c -0.574955,2.15954 -1.766416,6.60609 -2.647716,9.88123 l -1.602384,5.95479 2.959526,3.82928 2.959487,3.82929 2.772558,0.70965 2.772598,0.70963 0.145832,5.32025 0.145833,5.32025 1.678405,4.28125 1.678366,4.28129 -0.904886,3.72099 c -0.497697,2.04651 -1.039595,3.89244 -1.204235,4.10202 -0.3555,0.45254 -0.265623,-0.19361 0.662475,-4.76325 l 0.657856,-3.23899 -1.857669,-4.3822 -1.857689,-4.38217 -0.11301,-4.44516 -0.11301,-4.44516 -1.939998,-0.42271 c -1.066973,-0.23247 -2.268279,-0.51501 -2.669573,-0.62782 -0.401294,-0.11283 -2.296207,-2.1428 -4.210931,-4.51107 l -3.481259,-4.3059 0.458507,-2.05288 c 0.2521,-1.12908 1.260602,-5.37343 2.24092,-9.4319 0.980337,-4.05846 1.782414,-7.53999 1.782414,-7.73671 0,-0.33014 -3.109251,-4.29717 -6.055845,-7.72661 l -1.240359,-1.44361 v -3.19466 c 0,-1.75707 -0.03282,-3.19554 -0.07291,-3.19659 -0.0401,-0.001 -2.387224,-0.57069 -5.215816,-1.26583 l -5.142822,-1.26392 -1.277839,4.02853 -1.277858,4.02852 -0.152907,7.04958 -0.152908,7.04961 -3.309622,11.81284 c -1.820286,6.49706 -3.442344,12.34602 -3.604587,12.99769 -0.277003,1.11261 -0.104363,1.58293 2.832719,7.71489 2.688302,5.61278 3.216128,6.50689 3.757437,6.36509 0.34636,-0.0908 1.166145,-0.25902 1.82176,-0.37393 l 1.191991,-0.20892 1.363549,3.71206 1.36357,3.71207 3.180062,1.83385 c 4.605995,2.65613 4.287797,2.05566 3.5596,6.71751 -0.338027,2.16401 -0.614577,4.23257 -0.614577,4.59682 0,0.38683 1.213806,1.89768 2.918468,3.63261 1.605176,1.63367 2.91847,3.1224 2.91847,3.3083 0,0.40708 0.07861,0.46668 -3.997626,-3.03244 l -3.267995,-2.80536 0.162145,-1.98365 c 0.08923,-1.09104 0.259136,-2.98396 0.377531,-4.2065 0.247404,-2.55704 0.742958,-2.05152 -4.218536,-4.30417 l -2.918509,-1.32505 -1.145273,-2.64725 c -0.988475,-2.28479 -1.256692,-2.64726 -1.958729,-2.64726 -0.879631,0 -0.765776,-0.32182 -1.839745,5.19928 -0.250528,1.28777 -0.45544,2.68885 -0.45544,3.11346 0,0.42466 0.991698,3.8511 2.203774,7.61432 l 2.203794,6.84219 -2.228302,10.62158 c -1.22554,5.84183 -2.616919,12.42203 -3.091955,14.62267 l -0.863691,4.00109 3.004102,3.70446 c 1.652226,2.03746 3.950398,4.52384 5.106972,5.52537 2.326533,2.01457 2.368042,2.14816 1.691141,5.44097 -0.237007,1.15273 -0.432406,2.27761 -0.434293,2.49972 -0.0019,0.30638 4.293949,4.54448 6.780799,6.68868 0.257564,0.22204 -1.333479,13.54433 -1.669954,13.98364 -0.269239,0.35151 -0.1647,-1.97305 0.263834,-5.86197 0.229185,-2.08033 0.489716,-4.63983 0.578926,-5.68774 l 0.162145,-1.90529 -3.640064,-3.04851 c -4.014686,-3.36223 -3.874494,-3.06096 -3.235192,-6.95148 l 0.390898,-2.37882 -1.349655,-1.08398 -1.349654,-1.08398 -1.665277,4.52077 -1.665276,4.52078 1.71335,6.56324 c 1.494405,5.72432 5.264007,23.451 5.266071,24.76368 0.0014,0.84079 -4.723859,15.90428 -4.988892,15.90428 -0.141312,0 0.0019,-0.90025 0.319553,-2.00054 z"
   id="path23918"
   sodipodi:nodetypes="cscsssscsscccccsscscccssscccsscssscsscccscsccssssssssssccscccssssscccssssscsssssccssssssscssscsssscccccssscccccssssscssscssssssssssscsssssssscccssssscsscccssscscsscccscsscssscccccssssscccsscccccccccssscccccsssccssscssscccccssssscccsssssscccscssssscsscsssssssscsscccccssscc" /></svg>
